<?xml version="1.0" encoding="UTF-8" standalone="no"?> <svg id="Layer_1" data-name="Layer 1" xmlns="http://www.w3.org/2000/svg" viewBox="0 0 128 128"><defs><style>.cls-1{fill:#1d75b8;}.cls-2{fill:#2d3e50;}</style></defs><title>n</title><path class="cls-1" d="M94.14086,32.89591H75.3029a1.8838,1.8838,0,0,0,0,3.76759h18.838a1.8838,1.8838,0,0,0,0-3.76759Z"/><path class="cls-1" d="M94.14086,45.81336H75.3029a1.8838,1.8838,0,1,0,0,3.76759h18.838a1.8838,1.8838,0,0,0,0-3.76759Z"/><path class="cls-1" d="M59.54157,56.847a61.55832,61.55832,0,0,0-.53435-7.11853,2.82726,2.82726,0,0,0-1.52365-2.05189c-2.64935-1.32111-8.46305-3.27223-8.46305-3.27223V42.48477l.16184-.12212a5.55426,5.55426,0,0,0,2.10889-3.52975l.03257-.20459h.15775A2.14554,2.14554,0,0,0,53.46732,37.293a2.33643,2.33643,0,0,0,.29211-1.13179,2.14965,2.14965,0,0,0-.15267-.79593,1.11018,1.11018,0,0,0-.43053-.69212l-.53639-.32568.13332-.58218A6.74117,6.74117,0,0,0,46.076,25.632c-.10688-.002-.21273-.003-.31757-.001-.10483-.002-.21067-.001-.31755.001a6.74117,6.74117,0,0,0-6.69714,8.1333l.13332.58218-.53639.32568a1.11018,1.11018,0,0,0-.43053.69212,2.14965,2.14965,0,0,0-.15267.79593,2.33643,2.33643,0,0,0,.29211,1.13179,2.14554,2.14554,0,0,0,1.98575,1.33535h.15775l.03257.20459a5.55426,5.55426,0,0,0,2.10889,3.52975l.16184.12212v1.91959s-5.8137,1.95112-8.46305,3.27223a2.82726,2.82726,0,0,0-1.52365,2.05189,61.55832,61.55832,0,0,0-.53435,7.11853H59.54157Z"/><path class="cls-1" d="M92.80856,69.59579,85.0839,77.32045l-3.89715-3.89768a1.88378,1.88378,0,1,0-2.66433,2.6638l5.22945,5.22984a1.88438,1.88438,0,0,0,2.66459-.00026L95.473,72.25959a1.88383,1.88383,0,1,0-2.66446-2.6638Z"/><path class="cls-1" d="M65.25582,73.57277H33.85914a1.8838,1.8838,0,0,0,0,3.76759H65.25582a1.8838,1.8838,0,0,0,0-3.76759Z"/><path class="cls-1" d="M92.80933,90.09763,85.0848,97.822l-3.89715-3.89715a1.88387,1.88387,0,0,0-2.66433,2.66407l5.22945,5.22958a1.88438,1.88438,0,0,0,2.66459-.00026l9.05657-9.05657a1.884,1.884,0,1,0-2.66459-2.66407Z"/><path class="cls-1" d="M65.25582,94.07474H33.85914a1.8838,1.8838,0,0,0,0,3.76759H65.25582a1.8838,1.8838,0,1,0,0-3.76759Z"/><path class="cls-2" d="M105.34509,1.56048H22.65492A10.13674,10.13674,0,0,0,12.52959,11.6858V116.31418a10.13676,10.13676,0,0,0,10.12533,10.12533h82.69017a10.13675,10.13675,0,0,0,10.12532-10.12533V11.6858A10.13674,10.13674,0,0,0,105.34509,1.56048Zm1.125,114.7537a1.12624,1.12624,0,0,1-1.125,1.125H22.65492a1.12624,1.12624,0,0,1-1.125-1.125V11.6858a1.12625,1.12625,0,0,1,1.125-1.125h82.69017a1.12625,1.12625,0,0,1,1.125,1.125Z"/></svg>